<svg xmlns="http://www.w3.org/2000/svg" xmlns:xlink="http://www.w3.org/1999/xlink" version="1.1" x="0px" y="0px" viewBox="0 0 96 120" style="enable-background:new 0 0 96 96;" xml:space="preserve"><style type="text/css">
	.st0{fill-rule:evenodd;clip-rule:evenodd;}
</style><path class="st0" d="M20.7,46.7l28.5,28.5L34,90.5l-3.3-3.3l9.6-9.6c0.5-0.5,0.5-1.3,0-1.7c-0.2-0.2-0.6-0.4-0.9-0.4  c-0.3,0-0.6,0.1-0.9,0.4L29,85.5l-3.3-3.3l9.6-9.6c0.5-0.5,0.5-1.3,0-1.7c-0.2-0.2-0.6-0.4-0.9-0.4s-0.6,0.1-0.9,0.4l-9.6,9.6  l-3.3-3.3l9.6-9.6c0.5-0.5,0.5-1.3,0-1.7c-0.2-0.2-0.6-0.4-0.9-0.4c-0.3,0-0.6,0.1-0.9,0.4l-9.6,9.6l-3.3-3.3l9.6-9.6  c0.5-0.5,0.5-1.3,0-1.7c-0.2-0.2-0.6-0.4-0.9-0.4s-0.6,0.1-0.9,0.4l-9.6,9.6L10.5,67l9.6-9.6c0.5-0.5,0.5-1.3,0-1.7  c-0.2-0.2-0.6-0.4-0.9-0.4c-0.3,0-0.6,0.1-0.9,0.4l-9.6,9.6L5.5,62L20.7,46.7L20.7,46.7z M27.5,39.9L22.4,45L51,73.6l5.1-5.1  L27.5,39.9L27.5,39.9z M32.5,35l-3.2,3.2l28.6,28.6l3.2-3.2c-3.3-11.2-0.2-23.2,8-31.4c2.4-2.4,4.9-4,7.4-5.5c2.5-1.5,4.8-3,7-5.2  c4.5-4.5,6.3-8,7-10.2c0.8-2.4,0.7-4.4-0.4-5.4s-3-1.2-5.4-0.4c-2.2,0.7-5.7,2.5-10.2,7c-2.2,2.2-3.7,4.6-5.2,7  c-1.5,2.5-3.1,5-5.5,7.4C55.7,35.2,43.7,38.2,32.5,35L32.5,35z M2.9,62.8l30.3,30.3c0.5,0.5,1.3,0.5,1.7,0l17-17l11.4-11.4  c0.3-0.3,0.4-0.8,0.3-1.2C60.3,53,63,41.6,70.8,33.8c2.2-2.2,4.5-3.6,7-5.1c2.5-1.5,5-3.1,7.5-5.5c3.8-3.8,6.5-7.7,7.6-11.1  c1.1-3.4,0.8-6.2-1-7.9c-1-1-2.5-1.6-4.3-1.6c-3.7,0-8.8,2.4-14.7,8.3c-2.4,2.4-4,5-5.5,7.5c-1.5,2.4-2.9,4.7-5.1,6.9  C54.4,33,43,35.7,32.5,32.4c-0.4-0.1-0.9,0-1.2,0.3L19.8,44.1l-17,17C2.4,61.6,2.4,62.4,2.9,62.8z"/><text x="0" y="111" fill="#000000" font-size="5px" font-weight="bold" font-family="'Helvetica Neue', Helvetica, Arial-Unicode, Arial, Sans-serif">Created by Eko Purnomo</text><text x="0" y="116" fill="#000000" font-size="5px" font-weight="bold" font-family="'Helvetica Neue', Helvetica, Arial-Unicode, Arial, Sans-serif">from the Noun Project</text></svg>