<svg xmlns="http://www.w3.org/2000/svg" data-name="Layer 1" viewBox="0 0 100 125" x="0px" y="0px"><title>Home appliances</title><path d="M52.52,38a15.94,15.94,0,0,1,1.55,2.52,2.24,2.24,0,0,1,.34-.42l0,0a2.24,2.24,0,0,1,3.11-.28c2.72,2.63,5.47,5,7.84,7A11.64,11.64,0,0,1,68.49,44c-2-2.41-4.45-5.24-7.15-8a2.17,2.17,0,0,1,.25-3l0,0a2.23,2.23,0,0,1,3.11-.27,127.28,127.28,0,0,0,10.76,9.3l.75,0a19.41,19.41,0,0,1,3.52.34l-.07-.11A108.87,108.87,0,0,0,68.52,28.76a2.17,2.17,0,0,1,.26-3l0-.05a2.26,2.26,0,0,1,3.12-.27A108.11,108.11,0,0,0,85.26,36.57c1.16.76,2.33,1.13,2.54.91s-.15-1.38-.91-2.54A109.49,109.49,0,0,0,75.71,21.57a2.16,2.16,0,0,1,.26-3l0,0a2.24,2.24,0,0,1,3.11-.28L92.29,31.41A1.23,1.23,0,0,0,94,31.28c1.25-1.25,1.34-3.57.15-5.89C90.48,18.22,85,11,78.9,6.55c-3.11-2.29-6.47-2.68-12.45,3.3L46.35,30C49.05,33.44,51.27,36.37,52.52,38Z"/><path d="M25.75,68.78a2.17,2.17,0,0,1,3-.26A108.87,108.87,0,0,0,42.13,79.71l.09.06a18.87,18.87,0,0,1-.31-4.27,128.85,128.85,0,0,0-9.29-10.75,2.23,2.23,0,0,1,.27-3.11l0,0a2.17,2.17,0,0,1,3-.25c2.8,2.7,5.63,5.18,8.05,7.16a11.87,11.87,0,0,1,2.79-3.11c-1.94-2.36-4.35-5.11-7-7.83a2.24,2.24,0,0,1,.28-3.11l0,0a2.24,2.24,0,0,1,.42-.34A16.41,16.41,0,0,1,38,52.52c-1.65-1.25-4.58-3.47-8.06-6.17L9.85,66.45c-6,6-5.59,9.34-3.3,12.45C11,85,18.22,90.48,25.39,94.16c2.32,1.19,4.64,1.1,5.89-.15a1.23,1.23,0,0,0,.13-1.72L18.24,79.12A2.24,2.24,0,0,1,18.52,76l0,0a2.16,2.16,0,0,1,3-.26A109.49,109.49,0,0,0,34.94,86.89c1.16.76,2.33,1.13,2.54.91s-.15-1.38-.91-2.54A108.11,108.11,0,0,0,25.43,71.94a2.26,2.26,0,0,1,.27-3.12Z"/><path d="M86.44,49.26C79.29,44.49,71,44.84,68,50.05a7.11,7.11,0,0,0-.92,2.75L51.16,44v0a11.61,11.61,0,0,0-1.83-3.59C44,33.38,23.07,6,18.61,5L35.3,35.3,5,18.61C6,23.07,33.38,44,40.43,49.33A11.61,11.61,0,0,0,44,51.16h0L52.8,67.08a7.11,7.11,0,0,0-2.75.92c-5.21,3-5.56,11.29-.79,18.44s12.86,10.47,18.07,7.44,3.58-10.14-1.2-17.28a27.1,27.1,0,0,0-7.46-7.86l-4.4-14.47,14.47,4.4a27.1,27.1,0,0,0,7.86,7.46c7.14,4.78,14.24,6.41,17.28,1.2S93.58,54,86.44,49.26ZM62,79.49a21.92,21.92,0,0,1,3.69,8.13c.34,2.28-.49,3.1-1.34,3.6-3.14,1.83-8.67-1-12.08-6s-3.65-11-.51-12.8c.85-.5,2-.84,4,.45A23.48,23.48,0,0,1,62,79.49ZM45.83,46a2.31,2.31,0,1,1,0-3.27A2.32,2.32,0,0,1,45.83,46ZM91.22,64.34c-.5.85-1.32,1.68-3.6,1.34A21.92,21.92,0,0,1,79.49,62a23.48,23.48,0,0,1-6.67-6.19c-1.29-2-.95-3.2-.45-4,1.83-3.14,7.69-2.9,12.8.51S93.05,61.2,91.22,64.34Z"/><text x="0" y="115" fill="#000000" font-size="5px" font-weight="bold" font-family="'Helvetica Neue', Helvetica, Arial-Unicode, Arial, Sans-serif">Created by Lnhi</text><text x="0" y="120" fill="#000000" font-size="5px" font-weight="bold" font-family="'Helvetica Neue', Helvetica, Arial-Unicode, Arial, Sans-serif">from the Noun Project</text></svg>