<svg xmlns="http://www.w3.org/2000/svg" xmlns:xlink="http://www.w3.org/1999/xlink" version="1.1" x="0px" y="0px" viewBox="0 0 2048 2560" style="enable-background:new 0 0 2048 2048;" xml:space="preserve"><g><g><path d="M517.2,1726.9h571.1V737.6H517.2V1726.9z M1120.8,1792H484.7c-18,0-32.5-14.6-32.5-32.5V705.1    c0-18,14.6-32.5,32.5-32.5h636.1c18,0,32.5,14.6,32.5,32.5v1054.4C1153.4,1777.4,1138.8,1792,1120.8,1792z"/><path d="M628.7,560.2h348.1c39.9,0,76.1,16.3,102.4,42.6c26.3,26.3,42.6,62.5,42.6,102.4    c0,18-14.6,32.5-32.5,32.5h-573c-18,0-32.5-14.6-32.5-32.5c0-39.9,16.3-76.1,42.6-102.4C552.5,576.5,588.8,560.2,628.7,560.2    L628.7,560.2z M976.8,625.2H628.7c-21.9,0-41.9,9-56.4,23.5c-6.9,6.9-12.5,14.9-16.5,23.9h493.9c-4-8.9-9.6-17-16.5-23.9    C1018.7,634.2,998.8,625.2,976.8,625.2L976.8,625.2z"/><path d="M835.3,484c0-18-14.6-32.5-32.5-32.5c-18,0-32.5,14.6-32.5,32.5v108.7c0,18,14.6,32.5,32.5,32.5    c18,0,32.5-14.6,32.5-32.5V484L835.3,484z"/><path d="M831.4,321.1h-57.3v130.4h57.3L831.4,321.1L831.4,321.1z M741.5,256H864c18,0,32.5,14.6,32.5,32.5V484    c0,18-14.6,32.5-32.5,32.5H741.5c-18,0-32.5-14.6-32.5-32.5V288.5C709,270.6,723.6,256,741.5,256L741.5,256z"/><path d="M1578.5,368.9c14.9,0,22.9,17.7,13,28.8c-3.3,3.7-8,5.8-13,5.8h-30.4c-14.9,0-22.9-17.7-13-28.8    c3.3-3.7,8-5.8,13-5.8H1578.5z M1444.1,368.9c14.9,0,22.9,17.7,13,28.8c-3.3,3.7-8,5.8-13,5.8h-34.7c-14.9,0-22.9-17.7-13-28.8    c3.3-3.7,8-5.8,13-5.8H1444.1z M1305.4,368.9c14.9,0,22.9,17.7,13,28.8c-3.3,3.7-8,5.8-13,5.8h-34.7c-14.9,0-22.9-17.7-13-28.8    c3.3-3.7,8-5.8,13-5.8H1305.4z M1166.7,368.9c14.9,0,22.9,17.7,13,28.8c-3.3,3.7-8,5.8-13,5.8H1132c-14.9,0-22.9-17.7-13-28.8    c3.3-3.7,8-5.8,13-5.8H1166.7z"/><path d="M1567.9,263.2c6.7-1,13.2,2,17,7.5c7,10.6,0.7,24.9-11.9,26.8l-30.1,4.4c-6.7,1-13.2-2-17-7.5    c-7-10.6-0.7-24.9,11.9-26.8L1567.9,263.2L1567.9,263.2z M1434.9,282.8c6.7-1,13.2,2,17,7.5c7,10.6,0.7,24.9-11.9,26.8l-34.3,5.1    c-6.7,1-13.2-2-17-7.5c-7-10.6-0.7-24.9,11.9-26.8L1434.9,282.8L1434.9,282.8z M1297.8,303.1c6.7-1,13.2,2,17,7.5    c7,10.6,0.7,24.9-11.9,26.8l-34.3,5.1c-6.7,1-13.2-2-17-7.5c-7-10.6-0.7-24.9,11.9-26.8L1297.8,303.1L1297.8,303.1z M1160.6,323.4    c6.7-1,13.2,2,17,7.5c7,10.6,0.7,24.9-11.9,26.8l-34.3,5.1c-6.7,1-13.2-2-17-7.5c-7-10.6-0.7-24.9,11.9-26.8L1160.6,323.4    L1160.6,323.4z M1023.4,343.7c6.7-1,13.2,2,17,7.5c7,10.6,0.7,24.9-11.9,26.8l-34.3,5.1c-6.7,1-13.2-2-17-7.5    c-7-10.6-0.7-24.9,11.9-26.8L1023.4,343.7L1023.4,343.7z"/><path d="M1573,475.1c6.7,1,12.1,5.7,14.1,12.1c3.7,12.2-6.6,24.1-19.1,22.2l-30.1-4.4c-6.7-1-12.1-5.7-14.1-12.1    c-3.7-12.2,6.6-24.1,19.1-22.2L1573,475.1L1573,475.1z M1440,455.4c6.7,1,12.1,5.7,14.1,12.1c3.7,12.2-6.6,24.1-19.1,22.2    l-34.3-5.1c-6.7-1-12.1-5.7-14.1-12.1c-3.7-12.2,6.6-24.1,19.1-22.2L1440,455.4z M1302.8,435.1c6.7,1,12.1,5.7,14.1,12.1    c3.7,12.2-6.6,24.1-19.1,22.2l-34.3-5.1c-6.7-1-12.1-5.7-14.1-12.1c-3.7-12.2,6.6-24.1,19.1-22.2L1302.8,435.1z M1165.6,414.8    c6.7,1,12.1,5.7,14.1,12.1c3.7,12.2-6.6,24.1-19.1,22.2l-34.3-5.1c-6.7-1-12.1-5.7-14.1-12.1c-3.7-12.2,6.6-24.1,19.1-22.2    L1165.6,414.8L1165.6,414.8z M1028.4,394.5c6.7,1,12.1,5.7,14.1,12.1c3.7,12.2-6.6,24.1-19.1,22.2l-34.3-5.1    c-6.7-1-12.1-5.7-14.1-12.1c-3.7-12.2,6.6-24.1,19.1-22.2L1028.4,394.5z"/></g></g><text x="0" y="2063" fill="#000000" font-size="5px" font-weight="bold" font-family="'Helvetica Neue', Helvetica, Arial-Unicode, Arial, Sans-serif">Created by @w@n  !cons</text><text x="0" y="2068" fill="#000000" font-size="5px" font-weight="bold" font-family="'Helvetica Neue', Helvetica, Arial-Unicode, Arial, Sans-serif">from the Noun Project</text></svg>