<svg xmlns="http://www.w3.org/2000/svg" xmlns:xlink="http://www.w3.org/1999/xlink" version="1.1" x="0px" y="0px" viewBox="0 0 100 125" style="enable-background:new 0 0 100 100;" xml:space="preserve"><path d="M50,90c22.06,0,40-17.94,40-40c0-22.06-17.94-40-40-40S10,27.94,10,50C10,72.06,27.94,90,50,90z M50,87.02  c-10.28,0-19.59-4.22-26.31-11.01c3.72-11.23,14.4-19,26.31-19s22.59,7.78,26.31,19C69.59,82.8,60.28,87.02,50,87.02z M49.84,54.03  c-6.69,0-12.13-5.44-12.13-12.13c0-6.69,5.44-12.13,12.13-12.13c6.69,0,12.13,5.44,12.13,12.13C61.97,48.59,56.53,54.03,49.84,54.03  z M12.98,50c0-20.42,16.61-37.02,37.02-37.02c20.41,0,37.02,16.61,37.02,37.02c0,8.92-3.17,17.1-8.44,23.5  c-3.65-9.28-11.69-16.19-21.24-18.57c4.52-2.61,7.61-7.45,7.61-13.04c0-8.33-6.78-15.11-15.11-15.11c-8.33,0-15.11,6.78-15.11,15.11  c0,5.63,3.13,10.49,7.71,13.09c-9.46,2.43-17.41,9.3-21.03,18.51C16.15,67.1,12.98,58.92,12.98,50z"/><text x="0" y="115" fill="#000000" font-size="5px" font-weight="bold" font-family="'Helvetica Neue', Helvetica, Arial-Unicode, Arial, Sans-serif">Created by ainul muttaqin</text><text x="0" y="120" fill="#000000" font-size="5px" font-weight="bold" font-family="'Helvetica Neue', Helvetica, Arial-Unicode, Arial, Sans-serif">from the Noun Project</text></svg>